<svg id="Capa_1" data-name="Capa 1" xmlns="http://www.w3.org/2000/svg" viewBox="0 0 286.29 109.15"><defs><style>.cls-1{isolation:isolate;}.cls-2{fill:#fff;}</style></defs><g class="cls-1"><path class="cls-2" d="M39.35,18.19a140.65,140.65,0,0,1-5.93,40.88q-5.75,19.35-13.5,22.5a6.49,6.49,0,0,1-2.59.58q-12,0-14.55-41.85-.67-10.14-.67-22.5c.38-1.46,1.56-2.3,3.54-2.49q3.63,0,4.88,2.21a5.84,5.84,0,0,1,.39,1.24q.09,1.92.19,7.85Q11.88,59.94,15,69.22c1.15,3.2,2.49,4.82,4,4.89q5,0,9.48-14.37a133.1,133.1,0,0,0,5.65-36.38V20.68c0-2.56.8-4.12,2.4-4.7a3,3,0,0,1,.67-.09A2.38,2.38,0,0,1,39.35,18.19Z"/><path class="cls-2" d="M52.28,64.72q.19,11.11,7.09,11.2,5,0,10.34-4.78a6.66,6.66,0,0,0,.67-.58,3.61,3.61,0,0,1,1.91-1c1.09,0,1.85.67,2.3,2a6.86,6.86,0,0,1,.1,1,4.3,4.3,0,0,1-.58,1.92,20.71,20.71,0,0,1-12.06,7.08,19.87,19.87,0,0,1-4.22.48q-9.28,0-12.73-8.42a26.33,26.33,0,0,1-1.53-9.39q0-13.21,6.13-20.68A14.12,14.12,0,0,1,60.61,38.2q6.9,0,10.44,4.79a10.68,10.68,0,0,1,2.2,6.7q0,11.58-9.77,14.65a21.35,21.35,0,0,1-6.12.86A28.89,28.89,0,0,1,52.28,64.72Zm.48-6.41a43.42,43.42,0,0,0,6,.57q9.67-.2,9.77-8.81c-.07-4-1.53-6-4.41-6q-6.41,0-9.76,8.33A32.74,32.74,0,0,0,52.76,58.31Z"/></g><g class="cls-1"><path class="cls-2" d="M88.09,62a46.24,46.24,0,0,1,12.93-18q4.59-3.82,7.37-3.92,5.83,0,7.37,14.07a75.83,75.83,0,0,1,.38,7.86,88.15,88.15,0,0,1-1.82,17.8c-.44,1.54-1.81,2.33-4.11,2.4s-3.74-.73-4.31-2.2a2.32,2.32,0,0,1-.19-.86V78.7q1.82-16.36,1.82-20.87-.11-9.76-3.64-9.87-2.69,0-7.09,7.67-6,10.42-7.08,20a22.26,22.26,0,0,0-.2,2.77,3,3,0,0,1,.1.77c0,1.34-1,2.27-3.06,2.78a8.49,8.49,0,0,1-1.73.19Q81.48,82,81,80a74.41,74.41,0,0,1-1.34-14.17,105.94,105.94,0,0,1,1.73-21c.63-1.54,2-2.37,4.21-2.49s3.64.7,4.21,2.1a2.53,2.53,0,0,1,.19,1v.38c-.12,1-.32,2.59-.57,4.7Q88.38,58.11,88.09,62Z"/></g><g class="cls-1"><path class="cls-2" d="M153.67,19.14A2.84,2.84,0,0,1,151.85,22a2.88,2.88,0,0,1-.67.09c-.51,0-1.3,0-2.39-.05s-1.91,0-2.49,0q-6.7,0-9.67.09-1.73,25.86-1.72,36a129,129,0,0,0,1.34,20.49,3.29,3.29,0,0,1,.09.76c0,1.34-1,2.27-3.06,2.78a7.84,7.84,0,0,1-1.73.19c-2.36-.06-3.67-.8-3.92-2.2A315.5,315.5,0,0,1,125.52,47a134.28,134.28,0,0,1,1.92-24.23c-3.39.26-7.85.64-13.41,1.15h-.19c-1.09,0-1.82-.67-2.2-2a3.25,3.25,0,0,1-.19-1.05A2.87,2.87,0,0,1,113.07,18a2.39,2.39,0,0,1,.58-.1c2.11-.13,5-.35,8.81-.67Q136.53,16,146.3,16h1.34q1.05-.09,1.53-.09Q153.58,16.09,153.67,19.14Z"/></g><g class="cls-1"><path class="cls-2" d="M182.88,45.76c-.12,1.09-.35,2.81-.67,5.17a131.63,131.63,0,0,0-1.53,16.38,33.16,33.16,0,0,0,1.73,11.1,3.44,3.44,0,0,1,.09.77c0,1.34-1,2.27-3,2.78a6.69,6.69,0,0,1-1.91.28c-2.24-.06-3.51-.82-3.83-2.29q-.76-4.5-1-5.94-5.66,7.56-13.41,8.23h-1.14q-7.38,0-10.92-8a25.62,25.62,0,0,1-1.91-10.15,28.08,28.08,0,0,1,5.74-17.62q5-6.41,11.3-6.51a15.31,15.31,0,0,1,11.59,5.65,1.53,1.53,0,0,1,.19-.67c.63-1.53,2-2.36,4.21-2.49s3.73.74,4.31,2.2a2.32,2.32,0,0,1,.19.87A.63.63,0,0,1,182.88,45.76Zm-9.95,7.66q-.87-2.87-4.79-5.93A21.37,21.37,0,0,1,166.32,46q-5.37,0-9.1,6.8a23,23,0,0,0-3,11.3q0,10,5.65,11.78a7.15,7.15,0,0,0,2.3.38q4.41,0,7.85-5.93a24.26,24.26,0,0,0,2.4-6.32Q172.45,59.07,172.93,53.42Z"/><path class="cls-2" d="M197.06,62a46.32,46.32,0,0,1,12.92-18c3.07-2.55,5.52-3.86,7.37-3.92q5.85,0,7.38,14.07.38,3.73.38,7.86a88.88,88.88,0,0,1-1.82,17.8c-.45,1.54-1.82,2.33-4.12,2.4s-3.73-.73-4.3-2.2a2.35,2.35,0,0,1-.2-.86V78.7q1.83-16.36,1.82-20.87-.09-9.76-3.64-9.87c-1.78,0-4.15,2.56-7.08,7.67q-6,10.42-7.09,20a22.1,22.1,0,0,0-.19,2.77,3.46,3.46,0,0,1,.1.77c0,1.34-1,2.27-3.07,2.78a8.39,8.39,0,0,1-1.72.19c-2.24-.07-3.51-.8-3.83-2.2a74.41,74.41,0,0,1-1.34-14.17,106,106,0,0,1,1.72-21c.64-1.54,2-2.37,4.22-2.49s3.63.7,4.21,2.1a2.53,2.53,0,0,1,.19,1v.38c-.13,1-.32,2.59-.57,4.7Q197.33,58.11,197.06,62Z"/><path class="cls-2" d="M241,47.77q-.94,16.77-.95,22.51c0,3.89.12,7.24.38,10a2.93,2.93,0,0,1,.19.86c0,1.34-1,2.27-3.06,2.78a8.49,8.49,0,0,1-1.73.19c-2.1,0-3.38-.7-3.83-2.11a.78.78,0,0,1-.09-.28Q231.72,72,231.72,67q0-11.4.67-20.3c.44-1.53,1.85-2.33,4.21-2.39s3.64.7,4.21,2.1a2.53,2.53,0,0,1,.19,1Zm-8.52-21.06c0-2.55,1-4.12,2.88-4.69a2.44,2.44,0,0,1,.95-.19q3,0,4.31,3.15a8.26,8.26,0,0,1,.58,3.07c0,2.68-1,4.25-3,4.69a3.39,3.39,0,0,1-.77.1,4.56,4.56,0,0,1-4.4-3.16A7.82,7.82,0,0,1,232.48,26.71Z"/><path class="cls-2" d="M283.42,45.76c-.13,1.09-.35,2.81-.67,5.17a131.63,131.63,0,0,0-1.53,16.38A33.16,33.16,0,0,0,283,78.41a3.44,3.44,0,0,1,.09.77c0,1.34-1,2.27-3,2.78a6.69,6.69,0,0,1-1.91.28c-2.24-.06-3.51-.82-3.83-2.29q-.76-4.5-1-5.94-5.65,7.56-13.41,8.23h-1.14q-7.38,0-10.92-8A25.62,25.62,0,0,1,246,64.05a28.08,28.08,0,0,1,5.75-17.62q5-6.41,11.3-6.51a15.27,15.27,0,0,1,11.58,5.65,1.56,1.56,0,0,1,.2-.67c.63-1.53,2-2.36,4.21-2.49s3.73.74,4.31,2.2a2.32,2.32,0,0,1,.19.87A.63.63,0,0,1,283.42,45.76Zm-9.95,7.66q-.87-2.87-4.79-5.93A21.37,21.37,0,0,1,266.86,46q-5.37,0-9.1,6.8a23,23,0,0,0-3,11.3q0,10,5.65,11.78a7.15,7.15,0,0,0,2.3.38q4.41,0,7.85-5.93A24.62,24.62,0,0,0,273,64Q273,59.07,273.47,53.42Z"/></g></svg>