<svg id="Layer_1" data-name="Layer 1" xmlns="http://www.w3.org/2000/svg" viewBox="0 0 225.95 243.22"><defs><style>.cls-1{fill:#f4c3c4;}.cls-2{fill:#f2e2e6;}.cls-3{fill:#9b6667;}.cls-4{fill:#774d4f;}</style></defs><path class="cls-1" d="M48.66,20.28C34,.83,22.19-3.09,11.64,2.07s-16.81,16.45-6,49,18,56.29,44.11,98.89c26.65,44.93,62.19,67.34,80.1,78.92s58.71,24.79,82.41,1.7c12.31-12,22.7-39.72,1.57-62.92-10.3-11.31-47.3-24.09-74.42-43.18C115.06,107.32,66,41.76,48.66,20.28Z"/><path class="cls-2" d="M109.57,152.87A25.36,25.36,0,0,1,97.11,154a36.09,36.09,0,0,1-12-4.18L83.65,149l-.7-.4-.66-.45-2.63-1.85a11,11,0,0,1-1.27-1l-1.22-1c-.81-.71-1.67-1.36-2.43-2.11l-2.25-2.27a30.17,30.17,0,0,1-2.17-2.36c-1.33-1.64-2.76-3.27-4-4.94A444,444,0,0,1,38.88,90.87,338.52,338.52,0,0,1,16.6,46.12,125.17,125.17,0,0,1,9.39,22a53.64,53.64,0,0,1-.67-6.34,27.67,27.67,0,0,1,.39-6.41A13.69,13.69,0,0,1,11.65,3.3,9.35,9.35,0,0,1,17.06.14,9.1,9.1,0,0,0,12.4,3.83a12.62,12.62,0,0,0-1.63,5.64A38.2,38.2,0,0,0,12.3,21.38,101.45,101.45,0,0,0,16.14,33c1.5,3.8,3.08,7.57,4.8,11.3,3.48,7.42,7.13,14.79,11.07,22S40,80.71,44.11,87.83,52.5,102,56.82,109s8.78,14,13.31,20.81c1.15,1.71,2.37,3.26,3.56,4.91a26.79,26.79,0,0,0,1.9,2.33l2,2.29c.66.76,1.4,1.42,2.1,2.14l1.07,1.06a10.54,10.54,0,0,0,1.11,1l2.32,1.91.58.47.62.42,1.24.85a35.45,35.45,0,0,0,10.85,5.08,28.88,28.88,0,0,0,6,1A22.6,22.6,0,0,0,109.57,152.87Z"/><path d="M189,152a48.53,48.53,0,0,0-21.77,14.87,75.33,75.33,0,0,0-7.55,10.93A85.89,85.89,0,0,0,154.23,190a90.07,90.07,0,0,0-5.69,26c-.1,1.11-.11,2.21-.13,3.33s0,2.21.06,3.32.2,2.21.29,3.31.34,2.19.65,3.25a20.54,20.54,0,0,0,2.49,6.12,22.73,22.73,0,0,0,4.42,5,19.55,19.55,0,0,1-7.62-10.9,31.37,31.37,0,0,1-.78-3.32c-.13-1.12-.35-2.24-.41-3.37s-.18-2.26-.16-3.39,0-2.26,0-3.39c.23-9,2.48-17.92,5.44-26.42a87.69,87.69,0,0,1,5.63-12.32,66.87,66.87,0,0,1,7.88-11,52.63,52.63,0,0,1,10.3-8.77A42.24,42.24,0,0,1,189,152Z"/><ellipse class="cls-3" cx="206.64" cy="209.98" rx="19.48" ry="10.66" transform="translate(-61.81 331.32) rotate(-69.78)"/><path class="cls-4" d="M199.91,228.25a7.37,7.37,0,0,1-4.74-3.94,16.37,16.37,0,0,1-1.73-6.13,30,30,0,0,1,8.48-23,16.26,16.26,0,0,1,5.28-3.55,7.38,7.38,0,0,1,6.17.08,7.72,7.72,0,0,0-5.52,1.26,18.19,18.19,0,0,0-4.21,3.82,37.4,37.4,0,0,0-7.85,21.3,18.14,18.14,0,0,0,.73,5.64A7.75,7.75,0,0,0,199.91,228.25Z"/></svg>