<svg id="Layer_1" data-name="Layer 1" xmlns="http://www.w3.org/2000/svg" viewBox="0 0 230.69 243.27"><defs><style>.cls-1{fill:#fff;}.cls-2{fill:#e0e0e0;}.cls-3{fill:#969696;}.cls-4{fill:#757575;}</style></defs><path class="cls-1" d="M53.39,20.28C38.7.83,26.93-3.09,16.38,2.07s-16.82,16.45-6,49,18,56.29,44.12,98.89c26.64,44.93,62.18,67.34,80.09,78.92s58.72,24.79,82.41,1.7c12.31-12,22.7-39.72,1.57-62.92-10.29-11.31-47.3-24.09-74.42-43.18C119.79,107.32,70.72,41.76,53.39,20.28Z"/><path class="cls-2" d="M114.31,152.87A25.4,25.4,0,0,1,101.84,154a36.16,36.16,0,0,1-12-4.18l-1.4-.79-.7-.4-.66-.45-2.64-1.85a11,11,0,0,1-1.27-1l-1.22-1c-.8-.71-1.67-1.36-2.43-2.11l-2.25-2.27a30,30,0,0,1-2.16-2.36c-1.33-1.64-2.76-3.27-4-4.94A444.15,444.15,0,0,1,43.61,90.87,339.75,339.75,0,0,1,21.33,46.12,125.17,125.17,0,0,1,14.12,22a53.62,53.62,0,0,1-.66-6.34,27.12,27.12,0,0,1,.38-6.41A13.83,13.83,0,0,1,16.39,3.3,9.33,9.33,0,0,1,21.79.14a9.18,9.18,0,0,0-4.66,3.69,12.61,12.61,0,0,0-1.62,5.64A37.9,37.9,0,0,0,17,21.38,103.45,103.45,0,0,0,20.87,33c1.51,3.8,3.09,7.57,4.81,11.3,3.47,7.42,7.12,14.79,11.07,22s7.93,14.43,12.09,21.55S57.24,102,61.56,109s8.77,14,13.31,20.81c1.14,1.71,2.37,3.26,3.55,4.91a25.17,25.17,0,0,0,1.91,2.33l2,2.29c.66.76,1.41,1.42,2.11,2.14l1.07,1.06a9.64,9.64,0,0,0,1.11,1l2.31,1.91.59.47.62.42,1.23.85a35.4,35.4,0,0,0,10.86,5.08,28.78,28.78,0,0,0,6,1A22.67,22.67,0,0,0,114.31,152.87Z"/><path d="M193.69,152a48.58,48.58,0,0,0-21.77,14.87,75.33,75.33,0,0,0-7.55,10.93A87,87,0,0,0,159,190a90.09,90.09,0,0,0-5.7,26c-.1,1.11-.11,2.21-.13,3.33s0,2.21.06,3.32.2,2.21.3,3.31a32.78,32.78,0,0,0,.65,3.25,20,20,0,0,0,2.49,6.12,22.69,22.69,0,0,0,4.41,5,19.55,19.55,0,0,1-7.62-10.9c-.36-1.08-.52-2.21-.78-3.32s-.35-2.24-.4-3.37-.19-2.26-.17-3.39,0-2.26,0-3.39c.23-9,2.47-17.92,5.44-26.42a87.64,87.64,0,0,1,5.62-12.32,67.46,67.46,0,0,1,7.88-11,53.22,53.22,0,0,1,10.3-8.77A42.24,42.24,0,0,1,193.69,152Z"/><ellipse class="cls-3" cx="211.38" cy="209.98" rx="19.48" ry="10.66" transform="translate(-58.71 335.77) rotate(-69.78)"/><path class="cls-4" d="M204.65,228.25a7.38,7.38,0,0,1-4.75-3.94,16.36,16.36,0,0,1-1.72-6.13,29.93,29.93,0,0,1,8.47-23,16.37,16.37,0,0,1,5.28-3.55,7.4,7.4,0,0,1,6.18.08,7.71,7.71,0,0,0-5.52,1.26,17.79,17.79,0,0,0-4.21,3.82,37.21,37.21,0,0,0-7.85,21.3,17.57,17.57,0,0,0,.73,5.64A7.71,7.71,0,0,0,204.65,228.25Z"/></svg>