<svg id="Layer_1" data-name="Layer 1" xmlns="http://www.w3.org/2000/svg" viewBox="0 0 182.35 204.09"><defs><style>.cls-1{fill:#fff;}.cls-2{fill:#e2e2e2;}.cls-2,.cls-3,.cls-4{opacity:0.7;}.cls-3{fill:none;stroke:#d3d3d3;stroke-linecap:round;stroke-linejoin:round;stroke-width:4.16px;}.cls-5{fill:#d3d3d3;}</style></defs><path class="cls-1" d="M182.35,142.81V61.36A20.63,20.63,0,0,0,172,43.49L101.49,2.76a20.66,20.66,0,0,0-20.63,0L10.32,43.49A20.63,20.63,0,0,0,0,61.36v81.45a20.61,20.61,0,0,0,10.32,17.87l70.54,40.73a20.61,20.61,0,0,0,20.63,0L172,160.68A20.61,20.61,0,0,0,182.35,142.81Z"/><rect class="cls-2" y="100.18" width="182.35" height="8.92"/><polyline class="cls-3" points="108.14 55.13 91.18 45.34 74.21 55.13 74.21 74.72 91.18 84.52 108.14 74.72 108.14 64.93 91.18 64.93"/><g class="cls-4"><path class="cls-5" d="M61.46,160.23a8.67,8.67,0,0,1-5.57-1.88,8.85,8.85,0,0,1-3.11-5.13H57.9a4.45,4.45,0,0,0,.67,1.07,3.44,3.44,0,0,0,.86.72,3.88,3.88,0,0,0,2.14.58,3.78,3.78,0,0,0,2.72-1.06,4.25,4.25,0,0,0,1.08-3,4.1,4.1,0,0,0-1-2.83,3.27,3.27,0,0,0-2.61-1.19,3.93,3.93,0,0,0-1.54.35l-.44.31a7.38,7.38,0,0,0-1.11.88l-3.91-.82,3.09-14.13H69.76v4.39h-8.3l-1,4.75.19-.07.21-.06a1.19,1.19,0,0,0,.42-.11h.84a7.56,7.56,0,0,1,5.68,2.38,8.23,8.23,0,0,1,2.27,6,8.7,8.7,0,0,1-2.5,6.18A8.45,8.45,0,0,1,61.46,160.23Z"/><path class="cls-5" d="M82.78,160.23A8.27,8.27,0,0,1,78,158.92,8.75,8.75,0,0,1,75,154.77a19.83,19.83,0,0,1-1.18-7.71q0-7,2.24-10.09a7.57,7.57,0,0,1,6.66-3.56,8.22,8.22,0,0,1,4.84,1.39,8.87,8.87,0,0,1,3.1,4.18,23,23,0,0,1,1.06,7.84,23.15,23.15,0,0,1-1.06,8,9.85,9.85,0,0,1-3.08,4.15A8.22,8.22,0,0,1,82.78,160.23Zm0-4.64a3.25,3.25,0,0,0,2.86-1.66q1.19-2.16,1.18-7.11c0-3.33-.36-5.62-1.08-6.89a3.44,3.44,0,0,0-3-1.9q-2.61,0-3.56,3.56a24.21,24.21,0,0,0-.47,5.58c0,3.2.35,5.42,1.07,6.65A3.46,3.46,0,0,0,82.78,155.59Z"/><path class="cls-5" d="M104.35,160.23a8.25,8.25,0,0,1-4.75-1.31,8.62,8.62,0,0,1-3.07-4.15,19.62,19.62,0,0,1-1.19-7.71q0-7,2.25-10.09a7.56,7.56,0,0,1,6.65-3.56,8.22,8.22,0,0,1,4.84,1.39,8.88,8.88,0,0,1,3.11,4.18,23.29,23.29,0,0,1,1.06,7.84,23.4,23.4,0,0,1-1.06,8,10,10,0,0,1-3.09,4.15A8.21,8.21,0,0,1,104.35,160.23Zm0-4.64a3.24,3.24,0,0,0,2.85-1.66q1.18-2.16,1.19-7.11c0-3.33-.36-5.62-1.08-6.89a3.45,3.45,0,0,0-3-1.9q-2.61,0-3.57,3.56a24.79,24.79,0,0,0-.47,5.58q0,4.8,1.08,6.65A3.45,3.45,0,0,0,104.35,155.59Z"/><path class="cls-5" d="M125.8,160.23a10.68,10.68,0,0,1-4.88-.95,7.35,7.35,0,0,1-4-6.89,7.53,7.53,0,0,1,.93-3.67,9,9,0,0,1,2.62-3,7.3,7.3,0,0,1-1.78-2.48,6.53,6.53,0,0,1-.6-2.73,6.88,6.88,0,0,1,1.08-3.69,5.76,5.76,0,0,1,2.61-2.48,8.15,8.15,0,0,1,4-1,7.48,7.48,0,0,1,3.91,1,7,7,0,0,1,2.72,2.61,7.28,7.28,0,0,1,.95,3.67,6.6,6.6,0,0,1-.11,1.25,5.8,5.8,0,0,1-.36,1.24,8.33,8.33,0,0,1-1.9,2.61,6.63,6.63,0,0,1,2.61,2.85,7.47,7.47,0,0,1,.95,3.8,8.1,8.1,0,0,1-1.06,4C132.1,159,129.53,160.23,125.8,160.23Zm0-4.64a4.55,4.55,0,0,0,3-1,3.39,3.39,0,0,0,1.06-2.61,3.16,3.16,0,0,0-1.19-2.6,3.85,3.85,0,0,0-2.83-1.07,4.39,4.39,0,0,0-3,1.07,3.33,3.33,0,0,0,0,5.1A3.91,3.91,0,0,0,125.8,155.59Zm-.13-11.75a2.61,2.61,0,0,0,2-.82,3,3,0,0,0,.84-2.14,2.59,2.59,0,0,0-.84-2,3.19,3.19,0,0,0-4,0,2.91,2.91,0,0,0-.84,2,3,3,0,0,0,.84,2.14A2.61,2.61,0,0,0,125.67,143.84Z"/></g></svg>