<svg id="Layer_1" data-name="Layer 1" xmlns="http://www.w3.org/2000/svg" viewBox="0 0 145.29 311.65"><defs><style>.cls-1{fill:#bf9f99;}.cls-2{fill:#b27a6b;}.cls-3{fill:#e3e0de;}.cls-4{fill:#e1e1df;}.cls-5{fill:#9b9b9b;}.cls-6{fill:#d3d3d3;}</style></defs><path class="cls-1" d="M41.87.69S59.2,4.17,65.25,26.11s1.61,54.58,29.44,113.06c22.12,52.08,40.06,90.43,41.91,121.15,0,0,4.52,51.82-26.5,50.63S63.68,290,53.16,243.19s-7.07-70.44-12.43-90.09S32.83,114.83,11,73.93C-18,23.94,21-4.21,41.87.69Z"/><path class="cls-2" d="M41.89.57A32.13,32.13,0,0,1,59.78,13.63c.5.79,1.09,1.54,1.52,2.38l1.34,2.49c.4.85.75,1.72,1.13,2.59a20.51,20.51,0,0,1,1,2.65c.28.9.61,1.78.84,2.7l.68,2.74c.48,1.82.76,3.68,1.15,5.52,1.27,7.41,2.07,14.88,3.15,22.29s2.36,14.79,4,22.08a262.64,262.64,0,0,0,13.63,42.65c2.75,6.95,6.12,13.64,9,20.58L106,163c5.81,13.83,11.58,27.69,16.84,41.77,2.62,7,5.12,14.12,7.27,21.32A185,185,0,0,1,135.53,248c.3,1.85.55,3.72.82,5.58s.36,3.75.54,5.62a98.74,98.74,0,0,1,.27,11.28,78.34,78.34,0,0,1-3.56,22.26,35,35,0,0,1-5.16,10.1A23.87,23.87,0,0,1,124.5,307c-.37.3-.78.56-1.17.84a9.63,9.63,0,0,1-1.2.8,19.35,19.35,0,0,1-2.58,1.28l-1.35.53c-.46.14-.93.24-1.39.37s-.93.26-1.41.34l-1.43.19a18.36,18.36,0,0,1-2.87.17,26.8,26.8,0,0,1-2.84-.07A59.45,59.45,0,0,1,97,309.79a43.81,43.81,0,0,1-19.83-10.88,64.12,64.12,0,0,1-13-18.58,139.09,139.09,0,0,1-8-21.16c-2.16-7.23-3.89-14.57-5.43-21.93a369.07,369.07,0,0,1-6.59-44.63c-.69-7.48-1.12-15-1.83-22.41-.37-3.7-.8-7.4-1.5-11-.31-1.83-.77-3.61-1.2-5.4l-1.42-5.46c-1.85-7.28-3.62-14.54-5.79-21.67s-4.74-14.15-7.53-21.07S18.91,91.86,15.6,85.15c-1.62-3.38-3.37-6.67-5-10-.85-1.67-1.76-3.33-2.64-5S6.3,66.72,5.51,65A75.62,75.62,0,0,1,1.88,54.24c-.52-1.83-.81-3.71-1.15-5.57C.57,47.74.5,46.79.39,45.85L.23,44.44.17,43A42.7,42.7,0,0,1,4.78,21,40.34,40.34,0,0,1,20.2,4.85,37,37,0,0,1,30.67.7,25.9,25.9,0,0,1,41.89.57Zm0,.24A25.77,25.77,0,0,0,30.75,1,36.72,36.72,0,0,0,20.42,5.22a38.81,38.81,0,0,0-15,16.12A40.4,40.4,0,0,0,1.91,31.88a46.28,46.28,0,0,0-.66,5.51L1.2,40.17c0,.93.09,1.85.12,2.78l.08,1.39.18,1.38c.14.91.22,1.84.39,2.75.39,1.81.71,3.64,1.26,5.41A74.58,74.58,0,0,0,7,64.34c.82,1.67,1.61,3.35,2.47,5s1.83,3.24,2.73,4.9c1.78,3.31,3.57,6.63,5.25,10,3.41,6.7,6.64,13.5,9.56,20.45a218.12,218.12,0,0,1,7.75,21.24c2.21,7.21,4,14.53,5.87,21.77l1.42,5.43c.46,1.86.94,3.71,1.25,5.58.74,3.74,1.18,7.5,1.56,11.26.74,7.5,1.19,15,1.81,22.44A364.67,364.67,0,0,0,53,236.77c1.47,7.33,3.19,14.6,5.23,21.78a137.71,137.71,0,0,0,7.66,20.95,62.38,62.38,0,0,0,12.45,18.23,42.25,42.25,0,0,0,19,10.74,57.86,57.86,0,0,0,11,1.77c.93.05,1.86.14,2.77.1a16.66,16.66,0,0,0,2.74-.13l1.36-.16c.46-.06.89-.21,1.34-.3s.89-.21,1.32-.34l1.28-.49a17.42,17.42,0,0,0,2.47-1.17,11.8,11.8,0,0,0,1.15-.74c.37-.27.76-.51,1.12-.79a23,23,0,0,0,3.82-3.94,33.93,33.93,0,0,0,5.07-9.82,77.23,77.23,0,0,0,3.62-22,87.19,87.19,0,0,0-.28-11.2c-.2-1.86-.31-3.72-.58-5.57s-.54-3.7-.85-5.54c-2.72-14.72-7.67-28.94-13.13-42.87s-11.46-27.69-17.44-41.44l-8.89-20.66c-1.44-3.45-3-6.85-4.6-10.27s-3-6.89-4.41-10.38c-2.85-7-5.32-14.08-7.59-21.26C78,99.48,77.57,97.66,77,95.85S76,92.24,75.56,90.4c-.89-3.66-1.79-7.31-2.5-11-1.52-7.36-2.69-14.8-3.58-22.26s-1.59-14.92-2.71-22.32A68.45,68.45,0,0,0,64.28,23.9a21.76,21.76,0,0,0-.94-2.64c-.37-.85-.72-1.72-1.1-2.57l-1.31-2.47c-.43-.83-1-1.57-1.49-2.36A31.82,31.82,0,0,0,41.84.81Z"/><path class="cls-2" d="M78.42,7.71A99.4,99.4,0,0,0,48.29,3.29c5.57,3.09,13.31,9.6,17,22.82C71.31,48,66.86,80.69,94.69,139.17c22.12,52.08,40.06,90.43,41.91,121.15,0,0,2.39,27.49-8.3,42,25.53-9.7,17.45-75.92,6.94-91.62-20.74-25-40.23-76.6-48.3-101S86.1,61.69,94.64,61,97.1,17.66,78.42,7.71Z"/><path class="cls-3" d="M103.15,10.81c-3.74-2-13.63-7.74-22.29-9.48C75.12.18,69.44,2.85,66.27,4.79A96.15,96.15,0,0,1,78.42,7.71C97.1,17.66,103.18,60.24,94.64,61c-3,.26-5.83,3.32-7.9,8.24,3.68.14,9.33-.89,15.25-6.72,10.11-10,14.09-17.43,12.37-31.3S106.88,12.8,103.15,10.81Z"/><path class="cls-4" d="M54.24,172.77c-5.43,1-4.78,9-3.74,12.4s2.67,6.7,6.68,5.48,6.62-7,6-11.21S59.56,171.77,54.24,172.77Z"/><path class="cls-5" d="M54.26,172.89a3.86,3.86,0,0,0-2.49,1.61,5.67,5.67,0,0,0-.86,2.79,40.41,40.41,0,0,0,.2,5.91c.21,1.93.47,4.14,1.58,5.79a3.24,3.24,0,0,0,2.36,1.45,4.34,4.34,0,0,0,2.7-.76,9.84,9.84,0,0,0,3.33-4.53,11.61,11.61,0,0,0,.76-5.49,10,10,0,0,0-.71-2.66,8,8,0,0,0-1.4-2.35,5.4,5.4,0,0,0-2.41-1.59A6.45,6.45,0,0,0,54.26,172.89Zm0-.24a13.83,13.83,0,0,1,3.23-.25,7.33,7.33,0,0,1,3.31,1,7.11,7.11,0,0,1,2.54,2.54,10.29,10.29,0,0,1,1.18,3.36,11.58,11.58,0,0,1-1.24,6.85,9.34,9.34,0,0,1-4.87,4.79,6.6,6.6,0,0,1-3.43.38,4.49,4.49,0,0,1-1.62-.65,6.55,6.55,0,0,1-1.26-1.15,15.26,15.26,0,0,1-1.77-2.81,14.9,14.9,0,0,1-1.21-3.1,10.85,10.85,0,0,1,.3-6.66,7.49,7.49,0,0,1,1.92-2.83A6.26,6.26,0,0,1,54.21,172.65Z"/><path class="cls-4" d="M37.93,100.77c-10.13,3.71,5.42,60.92,14.19,58.88s8.38-23.83,4.54-36.43S46.3,99.47,37.93,100.77Z"/><path class="cls-5" d="M38,100.89a4.53,4.53,0,0,0-2.38,3.16,16,16,0,0,0-.56,4.14,47,47,0,0,0,.75,8.36c.94,5.52,2.14,11,3.41,16.46A102.38,102.38,0,0,0,44,149.17a34.34,34.34,0,0,0,4,7.33A7.15,7.15,0,0,0,51,159a2.24,2.24,0,0,0,1.66-.19,5.67,5.67,0,0,0,1.56-1.06c1.85-1.81,2.65-4.55,3.17-7.19a45.84,45.84,0,0,0,.69-8.22,67.8,67.8,0,0,0-.56-8.3A74.75,74.75,0,0,0,56,125.91,79,79,0,0,0,53.57,118a69.91,69.91,0,0,0-3.24-7.67,24.1,24.1,0,0,0-4.8-6.73,11,11,0,0,0-3.48-2.22A8.88,8.88,0,0,0,38,100.89Zm-.06-.25A10.56,10.56,0,0,1,46,103.05a27.05,27.05,0,0,1,5.79,6.42,54.19,54.19,0,0,1,6.85,15.8,63.15,63.15,0,0,1,1.81,17.15A40.76,40.76,0,0,1,59.33,151a20.69,20.69,0,0,1-1.49,4.16,10.76,10.76,0,0,1-2.73,3.61,6.71,6.71,0,0,1-2,1.17l-.57.16a2.15,2.15,0,0,1-.62.11,2.88,2.88,0,0,1-1.28-.21,5.56,5.56,0,0,1-1.88-1.35,14.67,14.67,0,0,1-1.4-1.68,46.89,46.89,0,0,1-4.09-7.52,125.29,125.29,0,0,1-6.08-16,74.36,74.36,0,0,1-3-16.82,54.63,54.63,0,0,1,.18-8.58,20.1,20.1,0,0,1,.87-4.2A5,5,0,0,1,37.9,100.64Z"/><path class="cls-6" d="M91.51,4.78a44,44,0,0,1,4,4.58c.65.78,1.22,1.63,1.83,2.45s1.13,1.7,1.71,2.55a58.52,58.52,0,0,1,5.36,11.06c.32,1,.73,1.93,1,2.93l.83,3c.23,1,.36,2,.54,3.07L107,36l0,1.56c0,1,0,2.08,0,3.11s-.23,2.07-.38,3.09c-.08.51-.11,1-.24,1.53l-.4,1.5c-.29,1-.57,2-.91,3l-.25-.06c0-4.1.25-8-.29-12l-.11-1.47-.22-1.46c-.15-1-.21-2-.39-2.93l-.54-2.92c-.17-1-.51-1.91-.75-2.88A57,57,0,0,0,98,15,58.25,58.25,0,0,0,91.33,5Z"/></svg>